M48
; DRILL file {KiCad 9.0.0} date 2025-12-08T09:03:50-0300
; FORMAT={-:-/ absolute / metric / decimal}
; #@! TF.CreationDate,2025-12-08T09:03:50-03:00
; #@! TF.GenerationSoftware,Kicad,Pcbnew,9.0.0
; #@! TF.FileFunction,Plated,1,2,PTH
FMAT,2
METRIC
; #@! TA.AperFunction,Plated,PTH,ViaDrill
T1C0.300
; #@! TA.AperFunction,Plated,PTH,ComponentDrill
T2C0.700
; #@! TA.AperFunction,Plated,PTH,ComponentDrill
T3C0.800
; #@! TA.AperFunction,Plated,PTH,ComponentDrill
T4C1.000
; #@! TA.AperFunction,Plated,PTH,ComponentDrill
T5C1.100
; #@! TA.AperFunction,Plated,PTH,ComponentDrill
T6C1.520
%
G90
G05
T1
X123.0Y-85.0
X130.0Y-74.5
X138.5Y-133.0
X146.5Y-68.0
X148.5Y-132.5
X162.5Y-73.0
X168.0Y-126.5
X172.0Y-87.5
X173.5Y-102.0
X179.0Y-113.5
T2
X119.5Y-122.69
X119.5Y-130.31
X127.69Y-118.0
X132.38Y-69.0
X135.31Y-118.0
X140.0Y-69.0
X178.4Y-68.855
X178.4Y-76.475
X178.45Y-85.4
X178.45Y-93.02
X178.575Y-99.045
X178.575Y-106.665
T3
X98.0Y-113.339
X98.0Y-115.839
X102.5Y-70.0
X105.0Y-70.0
X112.5Y-113.0
X112.5Y-115.5
X131.035Y-91.0
X131.035Y-98.62
X133.575Y-91.0
X133.575Y-98.62
X136.0Y-76.5
X136.115Y-91.0
X136.115Y-98.62
X138.5Y-76.5
X138.655Y-91.0
X138.655Y-98.62
X141.195Y-91.0
X141.195Y-98.62
X141.5Y-108.0
X143.735Y-91.0
X143.735Y-98.62
X144.0Y-108.0
X146.275Y-91.0
X146.275Y-98.62
X148.815Y-91.0
X148.815Y-98.62
X151.0Y-120.5
X151.07Y-108.5
X151.355Y-91.0
X151.355Y-98.62
X153.5Y-120.5
X153.895Y-91.0
X153.895Y-98.62
X155.95Y-108.5
X156.435Y-91.0
X156.435Y-98.62
X158.975Y-91.0
X158.975Y-98.62
X161.515Y-91.0
X161.515Y-98.62
X162.5Y-119.339
X162.5Y-121.839
X164.055Y-91.0
X164.055Y-98.62
T4
X149.92Y-62.0
X152.46Y-62.0
X155.0Y-62.0
X157.54Y-62.0
X160.08Y-62.0
X162.62Y-62.0
T5
X111.0Y-81.42
X111.0Y-83.96
X111.0Y-86.5
T6
X96.945Y-80.46
X96.945Y-85.54
X126.26Y-127.0
X131.34Y-127.0
X133.42Y-60.5
X136.42Y-127.0
X138.5Y-60.5
X141.5Y-127.0
X185.5Y-100.42
X185.5Y-105.5
X185.5Y-115.5
X185.5Y-120.58
X186.0Y-70.0
X186.0Y-75.08
X186.0Y-86.5
X186.0Y-91.58
M30
